<?xml version="1.0" encoding="UTF-8" standalone="no"?>
<!-- Created with Inkscape (http://www.inkscape.org/) -->

<svg
   width="31.014021mm"
   height="22.724689mm"
   viewBox="0 0 31.014021 22.724689"
   version="1.1"
   id="svg1"
   xml:space="preserve"
   inkscape:version="1.4.4 (dcaf3e7d9e, 2026-05-05)"
   sodipodi:docname="card.svg"
   inkscape:export-filename="lipu.png"
   inkscape:export-xdpi="1200"
   inkscape:export-ydpi="1200"
   xmlns:inkscape="http://www.inkscape.org/namespaces/inkscape"
   xmlns:sodipodi="http://sodipodi.sourceforge.net/DTD/sodipodi-0.dtd"
   xmlns="http://www.w3.org/2000/svg"
   xmlns:svg="http://www.w3.org/2000/svg"><sodipodi:namedview
     id="namedview1"
     pagecolor="#ffffff"
     bordercolor="#666666"
     borderopacity="1.0"
     inkscape:showpageshadow="2"
     inkscape:pageopacity="0.0"
     inkscape:pagecheckerboard="0"
     inkscape:deskcolor="#d1d1d1"
     inkscape:document-units="mm"
     inkscape:zoom="1.6258857"
     inkscape:cx="56.27702"
     inkscape:cy="33.212667"
     inkscape:window-width="1920"
     inkscape:window-height="1151"
     inkscape:window-x="0"
     inkscape:window-y="0"
     inkscape:window-maximized="1"
     inkscape:current-layer="layer1" /><defs
     id="defs1" /><g
     inkscape:label="Layer 1"
     inkscape:groupmode="layer"
     id="layer1"
     transform="translate(-111.73226,-122.63736)"><path
       style="fill:#666666;stroke:#000000;stroke-width:1;stroke-linecap:round;stroke-linejoin:round;stroke-dasharray:none;stroke-opacity:1"
       d="m 112.32397,143.43815 v -19.28372 c 0,-0.82617 0.40369,-1.01707 1.01707,-1.01707 h 27.39998 c 0.86919,0 1.50526,0.62549 1.50526,1.38322 v 16.71052 c 0,0.66539 -0.48212,1.04759 -1.21031,1.04759 h -8.92991 l -2.80713,2.58336 h -2.44606 c -0.26574,0 -0.35992,-0.19853 -0.35992,-0.4208 v -0.53524 c 0,-0.32854 -0.22667,-0.48369 -0.48368,-0.48369 h -1.83639 l -1.46967,1.42448 h -9.02653 c -1.56812,0 -1.35271,-0.73958 -1.35271,-1.40865 z"
       id="path1"
       sodipodi:nodetypes="sssssssccssssccss" /><path
       style="fill:#999999;stroke:#000000;stroke-width:1;stroke-linecap:butt;stroke-linejoin:miter;stroke-dasharray:none;stroke-opacity:1"
       d="m 114.45923,144.73136 c 1.80286,-5.60226 2.05233,-15.15878 0.12205,-21.49739 h -1.64795 c -0.36968,0 -0.67078,0.33004 -0.67127,0.6611 l -0.0298,20.10247 c -7.2e-4,0.48954 0.56779,0.73892 1.06792,0.73738 z"
       id="path2"
       sodipodi:nodetypes="ccssssc" /></g></svg>
